<svg width="24" height="24" viewBox="0 0 24 24" fill="none" xmlns="http://www.w3.org/2000/svg">
<path d="M10.0014 2.18164H14.6428C15.4704 2.23495 16.3081 2.2081 17.128 2.35538C18.2874 2.54714 19.4284 3.04265 20.2445 3.90711C20.979 4.67032 21.417 5.67707 21.6137 6.70874C21.7161 7.22535 21.7564 7.75154 21.7729 8.27697C21.8059 8.94161 21.8047 9.60702 21.8181 10.2721V13.7165C21.8013 14.6642 21.8032 15.6141 21.7211 16.5591C21.6011 17.8014 21.188 19.057 20.3362 19.9932C19.5304 20.9002 18.3722 21.4268 17.1909 21.6328C16.1263 21.8172 15.0405 21.7835 13.9647 21.818H10.0474C9.2428 21.8004 8.43702 21.795 7.63392 21.7382C6.68777 21.6623 5.73894 21.4395 4.90439 20.975C4.2409 20.6091 3.66369 20.0852 3.24335 19.454C2.61361 18.5155 2.3298 17.3856 2.25386 16.2684C2.1994 15.3871 2.1925 14.5042 2.18176 13.6217V10.2429C2.19519 9.38343 2.20132 8.52319 2.25847 7.66525C2.32021 6.84911 2.49011 6.03374 2.8303 5.28587C3.24335 4.36082 3.94904 3.56808 4.83037 3.06604C5.79186 2.51109 6.9083 2.28327 8.00786 2.2384C8.67212 2.20273 9.33676 2.19775 10.0014 2.18164ZM9.59718 3.95965C9.11892 3.9654 8.64067 3.97998 8.16318 4.00222C7.27379 4.0329 6.35181 4.18018 5.5909 4.67032C4.95732 5.06995 4.50706 5.71657 4.28117 6.42455C4.01462 7.20617 4.00388 8.03995 3.97511 8.85647C3.94405 10.007 3.95364 11.158 3.95095 12.3089C3.95479 13.5588 3.94328 14.8095 4.01423 16.0579C4.05642 16.856 4.2152 17.6729 4.64091 18.3613C5.01791 18.9849 5.63347 19.4409 6.3169 19.6791C7.16449 19.9936 8.07958 19.9982 8.97088 20.027C10.21 20.0565 11.4496 20.0461 12.6891 20.0488C13.7388 20.045 14.7889 20.0492 15.8375 19.9974C16.598 19.9679 17.375 19.8643 18.0646 19.5245C18.6368 19.2488 19.122 18.7962 19.4292 18.2397C19.805 17.5655 19.9477 16.7889 19.9876 16.0257C20.0666 14.5445 20.0436 13.0606 20.0486 11.5783C20.0447 10.3384 20.0558 9.09694 19.9799 7.85893C19.9285 6.99869 19.7302 6.11045 19.2037 5.40975C18.7776 4.83178 18.1386 4.43829 17.4548 4.23962C16.6317 3.99148 15.7638 3.99954 14.9128 3.96962C13.1409 3.93971 11.3691 3.9493 9.59718 3.95965Z" fill="#2467EC"/>
<path d="M16.9981 5.60605C17.558 5.47527 18.1744 5.82313 18.3523 6.36927C18.5491 6.89584 18.3001 7.53556 17.802 7.79367C17.3348 8.05753 16.6993 7.94209 16.3538 7.53211C16.0661 7.20956 15.9837 6.72364 16.1467 6.32363C16.287 5.96196 16.6184 5.68468 16.9981 5.60605Z" fill="#2467EC"/>
<path d="M11.3281 7.00329C12.2747 6.87711 13.2573 7.02093 14.1225 7.42593C15.2033 7.92451 16.0926 8.82119 16.5855 9.90426C17.0139 10.8347 17.1431 11.8978 16.959 12.9053C16.7646 13.9953 16.1931 15.0109 15.3689 15.7491C14.656 16.3927 13.7558 16.8265 12.8066 16.9756C11.7638 17.1459 10.6677 16.9795 9.72616 16.4985C8.69641 15.9804 7.85572 15.0975 7.39051 14.0428C6.91264 12.974 6.8298 11.736 7.15273 10.6111C7.42503 9.65267 7.99226 8.78207 8.75547 8.14235C9.48186 7.52872 10.3854 7.12755 11.3281 7.00329ZM11.4838 8.76788C10.4395 8.92627 9.50065 9.62965 9.04886 10.5839C8.7106 11.2823 8.63773 12.1022 8.83984 12.8509C9.02393 13.5427 9.44504 14.1679 10.015 14.6001C10.5795 15.0343 11.2894 15.2747 12.0016 15.272C12.7035 15.2728 13.4041 15.0415 13.9637 14.6174C14.5164 14.2039 14.9325 13.611 15.1315 12.9498C15.3448 12.2499 15.3145 11.4786 15.0445 10.7986C14.7572 10.0661 14.1957 9.44595 13.495 9.08812C12.8818 8.77018 12.1658 8.65972 11.4838 8.76788Z" fill="#2467EC"/>
</svg>
